PathFileType	3	(X/Y/Z)	results
DataRate	CameraRate	NumFrames	NumMarkers	Units	OrigDataRate	OrigDataStartFrame	OrigNumFrames
30.0	30.0	4	85	mm	30.0	180	478
Frame#	Time	head			nose			neck			shoulder_r			elbow_r			wrist_r			shoulder_l			elbow_l			wrist_l			hip_r			knee_r			ankle_r			hip_l			knee_l			ankle_l			heel_r			heel_l			mtoe_r			ltoe_r			mtoe_l			ltoe_l			asis_l			asis_r			psi_r			psi_l			mhnd_r			lhnd_r			mhnd_l			lhnd_l			l_lat_knee			r_med_wrist			l_lat_ankle			r_med_ankle			r_lat_knee			xiphoid			l_med_ankle			r_med_knee			l_med_elbow			navel			r_lat_elbow			r_lat_wrist			l_med_wrist			l_lat_elbow			l_med_knee			r_med_elbow			r_lat_ankle			l_lat_wrist			chin			T10			r_eye			l_eye			l_ear			r_ear			spinal_cord_8			spinal_cord_12			spinal_cord_27			spinal_cord_33			up_arm_r_0			up_arm_r_5			up_arm_l_0			up_arm_l_5			front_torso_11			front_torso_7			front_torso_4			front_torso_1			front_torso_10			thigh_r_2			thigh_r_3			thigh_l_1			thigh_l_5			shank_l_0			shank_l_4			shank_r_1			shank_r_2			foot_r_1			foot_r_3			foot_r_5			foot_r_6			foot_r_7			foot_l_1			foot_l_7			foot_l_0			foot_l_4			foot_l_5			foot_l_6			
		X1	Y1	Z1	X2	Y2	Z2	X3	Y3	Z3	X4	Y4	Z4	X5	Y5	Z5	X6	Y6	Z6	X7	Y7	Z7	X8	Y8	Z8	X9	Y9	Z9	X10	Y10	Z10	X11	Y11	Z11	X12	Y12	Z12	X13	Y13	Z13	X14	Y14	Z14	X15	Y15	Z15	X16	Y16	Z16	X17	Y17	Z17	X18	Y18	Z18	X19	Y19	Z19	X20	Y20	Z20	X21	Y21	Z21	X22	Y22	Z22	X23	Y23	Z23	X24	Y24	Z24	X25	Y25	Z25	X26	Y26	Z26	X27	Y27	Z27	X28	Y28	Z28	X29	Y29	Z29	X30	Y30	Z30	X31	Y31	Z31	X32	Y32	Z32	X33	Y33	Z33	X34	Y34	Z34	X35	Y35	Z35	X36	Y36	Z36	X37	Y37	Z37	X38	Y38	Z38	X39	Y39	Z39	X40	Y40	Z40	X41	Y41	Z41	X42	Y42	Z42	X43	Y43	Z43	X44	Y44	Z44	X45	Y45	Z45	X46	Y46	Z46	X47	Y47	Z47	X48	Y48	Z48	X49	Y49	Z49	X50	Y50	Z50	X51	Y51	Z51	X52	Y52	Z52	X53	Y53	Z53	X54	Y54	Z54	X55	Y55	Z55	X56	Y56	Z56	X57	Y57	Z57	X58	Y58	Z58	X59	Y59	Z59	X60	Y60	Z60	X61	Y61	Z61	X62	Y62	Z62	X63	Y63	Z63	X64	Y64	Z64	X65	Y65	Z65	X66	Y66	Z66	X67	Y67	Z67	X68	Y68	Z68	X69	Y69	Z69	X70	Y70	Z70	X71	Y71	Z71	X72	Y72	Z72	X73	Y73	Z73	X74	Y74	Z74	X75	Y75	Z75	X76	Y76	Z76	X77	Y77	Z77	X78	Y78	Z78	X79	Y79	Z79	X80	Y80	Z80	X81	Y81	Z81	X82	Y82	Z82	X83	Y83	Z83	X84	Y84	Z84	X85	Y85	Z85	
180	6.0	-84.50429198042494	2062.461886437422	1853.805255251225	-71.39185328373812	1849.1908615301468	1690.4641112400766	-59.647579687452264	1651.3619523694217	1876.768594221357	144.1138305651598	1598.8664121606798	1809.5913784615334	118.9089629029498	1379.9216612453097	1589.2282108448412	11.864352896912262	1357.401014679066	1321.8108846941502	-240.76518295239646	1591.5968479392473	1898.1826096637108	-264.8738721786163	1407.3891410427311	1645.7711811977747	-203.8322443314286	1385.4866191573062	1352.7718812939252	46.7964257430388	1117.6379340915119	1755.165139452334	159.7330837399641	643.1982358169977	1781.262321265311	287.62602403805056	163.63105634264556	1773.4265527114628	-135.4142810222239	1112.9297043195138	1832.6589400125736	-118.87249021574337	632.2834473637087	1917.359959538319	-120.08335496440928	156.520690901916	1994.6244620477419	298.8257841614414	101.33768509718489	1783.32706875901	-117.34176753911358	85.84037233975944	2022.4258753639922	223.94727536151467	64.95998418616169	1545.0857081666866	314.0641349578159	66.476909816762	1588.3498106735979	-195.65206140716202	84.45824697302668	1786.1687107993732	-254.55734955046245	65.25502633423267	1874.2155989721075	-189.76321235069625	1181.8597675909966	1821.5259936868438	78.2172530764259	1185.18532816243	1710.629770879567	43.35741079145189	1179.0897627675672	1877.5621217877451	-49.84592935561998	1177.3782746394586	1910.8059252964467	-3.7862974339063875	1322.847443519827	1259.0192002221704	-21.438094677957903	1370.6941973979146	1242.6440833636245	-205.8931857458537	1355.1458008791546	1282.8447473082635	-175.08691312059292	1396.8974069863834	1270.0570861416397	-174.4076897735604	627.9001856688586	1948.0949865872583	33.838862243289064	1329.0040116545808	1327.475936860473	-176.9516811654138	143.5608779045122	2030.1941586337593	245.48662299461168	140.00826902594875	1765.3768937045982	211.25377001256632	641.7067923475739	1761.1783368551044	-74.36468485799563	1480.8135227442724	1751.0606993402323	-93.76816543354052	137.35983274472184	1965.6698678934395	110.27531745801689	624.504842931709	1789.3618832426928	-244.9934376115535	1382.59955961215	1674.8830762407547	-64.3204282989909	1246.0472710842569	1702.2101500414476	153.41794682995965	1406.484938145777	1569.8854766537156	-10.022565519104798	1386.8191443006135	1338.0100492218312	-239.43745976954685	1364.9152919728708	1359.993792861704	-296.9946833455985	1442.1278190159217	1639.7361082233788	-88.2413625513234	622.1467278389266	1863.716682901183	88.91940777041866	1364.997277649227	1617.6416891096744	349.77979017946603	156.35820272873036	1756.9072366451885	-183.83855127258153	1418.3547971012415	1364.3836867660748	-63.41406244314439	1752.8484305512193	1711.1452079701253	-13.31300630531486	1468.1052194659776	1955.8805506030174	-32.85673702507971	1892.0866109471717	1692.5053950868883	-119.87630452426981	1884.9686721896815	1692.8752867055575	-184.445605565793	1868.1226471618784	1821.6127294520625	31.71998923860657	1881.725742135269	1823.7840900640672	-49.11414898154371	1708.991004451011	1936.8468171126804	-24.118257528325568	1575.8191767958276	1972.3002109481438	7.329344617024488	1308.1167294900288	1911.699275799527	-16.77995031402216	1459.350862249477	1940.88757386289	107.97735786147284	1527.3252589313342	1667.0972360147834	166.4083568605324	1444.950472874353	1696.8140442416654	-272.82996573777444	1573.3007611085477	1836.1139822219227	-249.0773397726161	1418.7198023274402	1744.438473703689	-0.2682272598706348	1277.2713501115875	1731.9449409275512	-75.81243349571092	1391.0298714363742	1705.2884631881248	-151.88829754905464	1522.0573307609454	1773.0889135625807	-135.46233040389492	1298.9206225823546	1770.954006700284	3.256649161711728	1586.1314595371402	1724.4876180283488	86.34440771337782	854.6434093851245	1772.4764765024509	209.59095159615833	835.8307038642515	1740.8922335745322	-76.14650656584459	764.8770578166975	1858.6470864184462	-249.3131895187327	986.1097748514901	1904.5867621518023	-200.3189611392309	275.8999409829281	2001.5364051886597	-67.92672150121209	443.2341816345099	1916.0198477824222	285.6829781477091	456.7953637786304	1765.00740878187	176.66405881490604	379.5640132782328	1780.905892878922	254.85801865995472	58.79853617674661	1557.7816040086461	286.1086491603444	62.52745609655499	1567.6588129750255	237.04385500716768	87.22495819731918	1635.7452457606937	280.76412050865804	95.83953134246374	1637.3342786492112	318.2464095995369	81.90554058122756	1641.8411559945018	-235.3448335117874	67.76332071312544	1831.6719629539552	-214.65840446757022	100.22951446082767	1947.346963666662	-247.52523058718563	66.86179966110623	1845.5675587370583	-220.1273160030311	68.83944094758904	1815.2645454535427	-205.26400156866407	85.9484277947062	1878.2517739312398	-162.9898188224608	101.09527700020426	1897.0958482425388	
181	6.033333333333333	-87.90964274603503	2059.8214528270296	1858.2255587269399	-78.6086130952974	1849.1313534368849	1691.312502596355	-65.22932398283739	1651.2610569341462	1875.5328067053922	139.81263807855575	1601.8864002471325	1816.2794900951315	117.37941869394517	1382.855241076069	1595.7027077050805	-2.1548011253227637	1382.026006451772	1332.6653775771533	-243.55534468055893	1588.8748328550346	1902.5864587978867	-261.9018902586348	1415.7096727859514	1642.005436848678	-178.89159080935076	1411.5511203762212	1353.654284316704	46.235260875365185	1118.892343035578	1754.9274069147416	158.31777755660437	644.1058718143997	1779.3972744489813	287.3573336737949	164.8027738560902	1774.9233141730608	-136.56479752797313	1112.6263123754409	1830.9081526353189	-121.74530151035921	632.0670803083871	1916.6093026659792	-120.09322257983874	156.63817022485605	1995.8941818648805	298.636544398378	102.55117460170523	1785.1786753127135	-117.11406062538249	86.20160444418443	2024.0648818288146	225.06917614365906	65.37402080967713	1546.6524175033217	314.93270096377563	66.83320587975031	1590.4422530640122	-196.20847647865662	82.35502413347118	1788.096372478339	-255.2857122119424	66.2832029754353	1876.6538563734184	-191.197025689827	1181.3435021041435	1819.8460581270508	77.64506526980395	1186.937424365743	1711.1483139059442	41.47675136139724	1179.4126156574616	1877.7436458461705	-51.98038194051659	1176.9518323874834	1910.219037431109	-21.815161607347395	1352.3336923919503	1268.5286136585353	-38.42807535466489	1401.737678271373	1256.1876440533365	-176.17118089068993	1385.9333001898226	1281.8842107517287	-143.6205386490223	1427.632561713419	1274.3096083364783	-178.1651170749084	627.6478554625074	1945.6465964162544	19.00466677521953	1352.5966362857582	1335.4132399520618	-177.84598423594124	143.20143163811954	2029.824097430617	245.34930317486598	141.04779965160517	1766.5813248910151	208.99748798061586	642.3470086028921	1757.3419393865493	-77.98210270078108	1480.2944972656303	1750.1787601902038	-92.7265729148062	137.64883757360013	1967.8145105780345	109.15262747639302	625.72147744574	1789.613641784061	-244.36153404501874	1389.0707058142093	1670.9874795932822	-65.77228585391765	1245.5035156358092	1701.9442135148074	151.67305737009318	1409.7748769187815	1576.4699603766396	-22.22105239282579	1410.9932348453044	1351.7735360138206	-215.36214721919984	1391.4679720446898	1356.757918229789	-292.42922061998877	1451.841977462756	1635.8830988224365	-89.42307416068847	621.9716830297555	1863.976116787233	87.46473481390767	1367.6126502186387	1624.026046176855	349.680988504317	157.59867050968296	1759.0256479264415	-159.18415350172918	1443.0626554609257	1368.9362665565907	-70.21372434364663	1752.4757518827982	1710.2976927889313	-17.713057837356654	1468.5874690912474	1955.2898706162289	-40.01524641559982	1891.9838719791335	1693.1512646180513	-127.00774400490825	1884.874613470128	1695.380795137541	-188.6536256925373	1866.0255659912013	1825.2684813946682	27.512623893417686	1879.559225861046	1822.7553225512522	-55.43600930854474	1709.1200175240006	1935.5151819433752	-29.485704915036262	1576.2467192439826	1971.4003001832398	4.4515689751908925	1308.6710009629892	1911.5879123158147	-21.042119119828424	1459.768536398931	1940.3034901422936	104.77084974903111	1530.088021210674	1673.6413895227756	163.9413633314847	1448.279328593994	1703.4585632301055	-273.1910509185178	1574.2380802398438	1838.3766309710147	-250.53661237523417	1422.573343739975	1741.6892841426015	-2.11147703460509	1277.3318091750484	1731.8782494764366	-78.4842724207444	1390.392245074665	1704.6196722139823	-155.94097599306363	1520.9433508588008	1771.7724912891586	-137.64858661928164	1297.946853601836	1770.2521417028572	-1.126181016764781	1586.191774029799	1723.6834392495775	85.44248868725133	855.8491725781868	1772.274713822683	207.26634102539032	836.3508580476902	1735.9434930702762	-77.453885315166	764.7199315452731	1859.1171550151253	-252.38486987164828	985.6610906284982	1899.4312200923341	-201.78572213109675	275.15891162034063	1999.9069343194396	-68.73892912089086	443.5830689497238	1917.606333477082	284.83486095338003	457.92135350157236	1765.1711880330986	175.8441883161429	380.5121689130954	1780.3836660896623	255.8877955365239	59.18386347504768	1559.5565995756162	287.08942184455185	62.87123694479435	1569.6028824720186	237.68969173474835	87.98395695614909	1637.2940999488674	281.4227187699691	96.48910750723522	1639.1058041064643	318.8402966892488	82.47474843973093	1643.8925190565756	-236.1561435449122	67.51310061574893	1834.0167805674928	-214.28688628190827	101.61201310388151	1949.0023780431798	-248.30963043544014	67.17687319595058	1847.9610303792585	-220.9703748544516	67.9008428525002	1817.5493488260572	-205.47833961934492	85.8091301479961	1880.1617804081918	-162.7777849975652	100.24405420641449	1898.598925164996	
182	6.066666666666666	-92.07057708724692	2058.2429020141703	1860.7582500729852	-85.75476707135616	1848.850296610506	1692.0821024214779	-70.49939588998696	1651.1001064343982	1872.975090661486	134.99762482562895	1602.8872943519743	1821.9832991029073	117.26960025261998	1385.7917108087527	1599.076951727844	-13.800544033637674	1395.825719641251	1341.787833570429	-246.67342734426012	1588.145003517688	1914.9639895932692	-260.6832961941089	1418.9703082888016	1651.5083320994188	-174.99048312186727	1427.753833551535	1364.0470616453856	45.28979881807245	1119.2383514561168	1754.3555748552212	157.64633733862544	644.2192789553815	1774.8645938084132	288.91110947471674	165.50009732226323	1775.2979625688238	-138.2175346242703	1112.4503312227919	1828.5659485703934	-124.46191350875766	632.1154127671848	1915.829236172311	-119.51511378249835	157.0017904640938	1996.8480306097451	300.5905001454655	103.22530610978232	1786.193713538767	-116.51376808351878	86.8615926641268	2025.4082325987818	225.70658221921437	65.4152742119919	1548.1771712051375	315.8991661130496	68.48467013981896	1591.200521049013	-194.66777883486236	80.31714662399679	1789.1859198638294	-254.77247559341586	69.1134678903524	1877.8016869791968	-192.90668368245284	1181.047731969671	1817.050913220333	76.95501745880766	1187.4060623105254	1710.9528673901013	39.20295134229329	1179.6143602470245	1877.1841676444017	-54.556253329114114	1176.8935829676318	1908.755534233285	-35.92562773986524	1368.954199843238	1277.2116005647772	-53.66857982098121	1418.6493793920856	1268.0127399939527	-170.52346385150742	1404.6238089345275	1291.5235171870168	-139.7371908777143	1447.9043693205024	1285.6289592929486	-182.42772425260037	627.2882174796928	1941.5384375165224	7.815861568451182	1366.6035020543895	1342.1811095370185	-178.890696901837	142.6967215784739	2027.4596579181564	246.8740500923892	141.42843388396466	1768.086661102625	206.8036010709773	642.2851784208459	1749.6875214841318	-82.1023328156818	1479.6207442382863	1748.2111733489792	-90.27188585439217	138.39431176383155	1970.455009472139	109.21843702169707	626.1575002561116	1788.467683751566	-242.00765786990516	1392.474934383716	1679.9068030773678	-68.198699052477	1244.7647756419115	1700.7578367123722	150.19189494260814	1414.2292796183701	1579.6335412785963	-33.349393037376245	1423.5577334402699	1363.1338962718846	-210.58617837322544	1406.0354358615436	1366.1266184656088	-292.51474760742303	1454.0940737616106	1646.2145467723403	-89.00521433765284	622.2541036481255	1865.2211478893855	88.42856750069103	1369.0813764799998	1627.6845721514264	350.9691139187838	158.34016752386935	1758.3742413984994	-156.79981603597102	1459.5675388063212	1380.5360488410963	-77.79939120085834	1751.993223145101	1710.2104291523015	-21.556988440547308	1469.0541808243206	1953.3028331251323	-46.86958588482375	1891.4396924928596	1693.8858167354597	-133.88032423698743	1884.8674172612086	1696.9096569101018	-194.3791790016009	1865.3652017113245	1827.239486657378	21.835198632996004	1877.5403352599635	1822.7192649748667	-61.07899220406657	1709.2325669241645	1932.7523999338034	-34.11173436838112	1576.6771978425	1969.0610013591222	1.750796667892164	1309.15928290614	1910.119764768191	-24.834608259813564	1460.1601963514117	1938.349503359504	100.35958630170637	1531.4993879865608	1679.0408805964964	163.08382919162105	1451.6648976029294	1706.8796882618335	-276.2182775322215	1573.5760092235405	1850.6969075564639	-248.87399866826595	1424.5085989341017	1751.2230088542703	-4.747508655015831	1277.1646177806956	1730.5232868959013	-81.98105105802934	1389.5636360234482	1702.956337459576	-160.33999039427982	1519.7640928392784	1769.742196221301	-140.3977569578495	1296.9052770921255	1768.9571292906141	-6.05765793793047	1585.9939234512215	1721.2849385103812	84.94996403615549	856.2198102335336	1771.0338110313344	204.1248471578206	836.1367307523686	1727.0427889826747	-77.96272938919715	765.0917462435282	1860.816056593885	-256.7933053128544	984.6024460597915	1890.409075347908	-203.24881734514165	274.1527374474398	1995.7276223279916	-68.49564800468671	444.5461505684615	1920.566442726432	284.7867424961012	458.4212961675064	1761.1512516312575	176.46879539301264	380.7543403884399	1779.5260818230372	256.7504259122755	59.78572654974464	1560.7950642917006	287.9596809353738	64.0488186469248	1570.586614428422	238.6652911589526	87.9641930420784	1638.7863282760482	282.23794877122657	97.31668866466873	1640.253245365598	319.9619224115252	84.0206683983591	1644.6699970334944	-235.42129343402993	68.41005080706054	1835.2527712196413	-212.59865799683664	104.5027676721553	1949.4417854633355	-247.63880754341815	68.96071200746773	1849.1341082056185	-220.16110576840532	67.71445418275842	1818.864450968092	-204.18189291315863	86.55448016056378	1881.0797599835876	-160.97720391805862	99.60499894836279	1899.3737894076712	
183	6.1	-97.33520712920917	2057.296796813707	1862.0257845521621	-93.7983901490599	1848.7297281134422	1692.2492719838071	-77.07606348225313	1650.9697560722304	1869.6657366957477	130.19651506378707	1600.3933381572508	1822.6372408552195	115.99569495812126	1385.557209276225	1597.302402481152	-23.098921753904005	1402.0151861659572	1344.5978774383204	-247.8566457231934	1585.7314819685896	1928.0071175707612	-260.46413972162867	1418.2328567130094	1663.4121459082908	-179.66928417559487	1434.227769922621	1374.8454385284638	43.62426011533123	1118.514880329024	1753.3918883769566	157.29352204972486	643.5775812450148	1770.2440009317825	289.5568299611157	165.1493572672486	1774.1854420034897	-140.6072050105701	1112.6311732221843	1825.8649693173813	-126.97601331864338	632.5952900041564	1914.804160362489	-119.42104240804112	157.65965687977317	1996.6609669265886	301.43142005700264	102.89230561981114	1785.630099194876	-116.41707348939997	87.78906968691936	2025.5087005589853	226.73264658955884	63.97622497921948	1547.733680536275	316.96398341259305	69.27235430691245	1590.4582505384324	-191.1741722635482	78.68013989647298	1788.2740829643187	-252.72385171236178	69.65777942597332	1876.1437884511247	-195.1068598778002	1181.1671090516004	1813.1482255365186	75.78614200674093	1186.2253037835717	1709.6399764323633	36.401977822623834	1180.0904128731252	1875.5617201140847	-57.66435451944158	1177.7698375515506	1906.2387852898405	-46.824783013097246	1376.939903842586	1279.8676565335873	-65.55128564791188	1426.6328711208944	1272.8698456693476	-175.36731286039526	1412.2247578758524	1301.9621255931756	-146.50197175077375	1456.8247400242374	1296.1844964343957	-185.85919845497824	627.4305458202845	1938.258069619126	-1.06577906653256	1373.1296567220456	1343.361564412981	-179.74259796605338	142.67277215921243	2025.0135649466495	247.43483263783097	140.90847503684034	1768.1291080277974	205.80036281476478	641.8585325255217	1743.8805204033945	-86.52997534015411	1479.2689766833212	1745.0250500181091	-88.9738789096119	139.3781472069099	1971.427004752825	109.28385836526637	625.5048999337691	1785.1599378036271	-240.19054047698867	1392.2739377843648	1691.2037482513715	-70.2293214141658	1244.5069954565333	1697.8704423199376	147.7953926133867	1415.1999661640168	1577.7907339087558	-42.372093295936956	1428.730452345436	1367.4389783584904	-214.2948046456704	1411.016805402807	1377.1673630433947	-293.7573312302923	1452.107970011478	1659.0550297359118	-89.50842208604858	622.871490531145	1865.641409926704	88.04695631328359	1367.6477844815356	1626.069691223093	351.27807024576845	157.88793457172605	1756.1124487065902	-162.56402817682067	1466.5622286568391	1391.4825027343318	-86.41037592284407	1751.7263156462946	1709.826875094154	-26.794483944364345	1469.4658407385884	1950.3919156293243	-54.59299854855371	1891.0277326106332	1693.9765322034516	-141.62408849439996	1885.067897857051	1697.62026000051	-201.2873654282457	1865.3361169265709	1828.3002606431662	14.969810487350355	1875.9742344362257	1822.2185094345095	-68.46163134912864	1709.2453524356547	1929.425255599009	-40.42091550443681	1576.9823489659248	1965.986021087423	-1.8074963716452896	1309.7534389303264	1907.47329752105	-29.923066439307956	1460.527216033163	1935.4332799124047	95.81119783170134	1529.7217598914945	1679.2784605843217	161.25017616026355	1451.4739069064813	1705.3147685350382	-278.08784187680504	1570.5136709617216	1864.2113135694124	-246.88275077631243	1423.4425760563463	1762.9186965988354	-7.214757106494759	1277.5257329950073	1727.8823235435616	-85.3698507823924	1389.1731431569829	1699.8620949236356	-165.23254130606935	1518.702062077675	1766.1707903191134	-143.2113480361527	1296.0381792550804	1765.6984619618504	-11.361678409338264	1586.320317495009	1718.3266320377495	84.16644564463977	855.5461069408856	1768.675890116445	202.19365322048932	835.7346327649722	1721.5773059315736	-79.27936708357406	765.7718904608726	1861.3083303000578	-260.6209598182595	984.1048878994579	1883.376360387013	-204.44962793595047	273.7932523604282	1992.1820775566903	-68.98634792145761	445.71810518385286	1921.9461924922502	284.5276328354244	457.85596034079896	1756.3663438311978	176.76507761214168	380.2300571537686	1777.9074421165321	257.95867477811106	59.12339270931014	1560.2240146628117	289.0788179458104	64.17425422240575	1569.924091703907	239.41101570132744	86.53246957240759	1638.3806661971876	282.72638279586045	97.02764540262669	1639.7326163712962	320.80369644133697	84.71717560932429	1643.970606041425	-232.76104264629706	68.0376192740806	1833.9035870530893	-211.12204758548887	105.56651934219606	1947.8598217459976	-245.17245278122218	68.96761027020956	1847.591333781415	-217.27274041209625	66.88282068957359	1817.7569726385302	-201.95055723523168	86.4573034093629	1879.9107885081821	-158.84304054917132	99.19841092124234	1898.646820342458	
